<svg width="220" height="220" viewBox="0 0 220 220" fill="none" xmlns="http://www.w3.org/2000/svg">
  <rect width="220" height="220" fill="#090909"/>
  <g opacity="0.28" fill="#f2e8da">
    <circle cx="16" cy="22" r="1"/>
    <circle cx="52" cy="30" r="1"/>
    <circle cx="88" cy="18" r="1"/>
    <circle cx="134" cy="26" r="1"/>
    <circle cx="180" cy="16" r="1"/>
    <circle cx="24" cy="64" r="1"/>
    <circle cx="74" cy="72" r="1"/>
    <circle cx="118" cy="58" r="1"/>
    <circle cx="170" cy="66" r="1"/>
    <circle cx="204" cy="72" r="1"/>
    <circle cx="38" cy="116" r="1"/>
    <circle cx="96" cy="104" r="1"/>
    <circle cx="148" cy="112" r="1"/>
    <circle cx="188" cy="120" r="1"/>
    <circle cx="18" cy="170" r="1"/>
    <circle cx="70" cy="156" r="1"/>
    <circle cx="130" cy="174" r="1"/>
    <circle cx="178" cy="162" r="1"/>
    <circle cx="210" cy="184" r="1"/>
    <circle cx="42" cy="198" r="1"/>
    <circle cx="102" cy="202" r="1"/>
    <circle cx="154" cy="194" r="1"/>
  </g>
</svg>
