<svg width="1200" height="630" viewBox="0 0 1200 630" fill="none" xmlns="http://www.w3.org/2000/svg">
  <rect width="1200" height="630" fill="#24110D"/>
  <rect x="40" y="40" width="1120" height="550" rx="32" fill="url(#bg)"/>
  <rect x="40" y="40" width="1120" height="550" rx="32" stroke="#F7EAD8" stroke-opacity="0.22" stroke-width="2"/>
  <circle cx="994" cy="164" r="164" fill="url(#haloA)" opacity="0.9"/>
  <circle cx="950" cy="472" r="220" fill="url(#haloB)" opacity="0.8"/>
  <circle cx="914" cy="314" r="96" fill="#F7EAD8"/>
  <ellipse cx="914" cy="314" rx="82" ry="72" fill="#F2AA37"/>
  <ellipse cx="914" cy="314" rx="64" ry="56" fill="#F7EAD8"/>
  <path d="M850 312C872 260 892 240 914 240C936 240 956 260 978 312" stroke="#C5482E" stroke-width="18" stroke-linecap="round"/>
  <path d="M862 328C882 350 900 360 914 360C928 360 946 350 966 328" stroke="#4F6E35" stroke-width="12" stroke-linecap="round"/>
  <circle cx="874" cy="314" r="10" fill="#F3A229"/>
  <circle cx="914" cy="282" r="10" fill="#F3A229"/>
  <circle cx="954" cy="314" r="10" fill="#F3A229"/>
  <text x="104" y="150" fill="#FFD17B" font-family="Arial, sans-serif" font-size="26" letter-spacing="6">THE DOSA SPOT / CORK</text>
  <text x="104" y="252" fill="#F7EAD8" font-family="Georgia, serif" font-size="82">South Indian restaurant in Cork</text>
  <text x="104" y="326" fill="#F7EAD8" font-family="Arial, sans-serif" font-size="34">Crisp dosas, warm plates, and quick local favourites on Washington Street.</text>
  <text x="104" y="410" fill="#F7EAD8" font-family="Arial, sans-serif" font-size="26">4.6 rating</text>
  <text x="256" y="410" fill="#F7EAD8" font-family="Arial, sans-serif" font-size="26">610 reviews</text>
  <text x="454" y="410" fill="#F7EAD8" font-family="Arial, sans-serif" font-size="26">Dine-in</text>
  <text x="588" y="410" fill="#F7EAD8" font-family="Arial, sans-serif" font-size="26">Delivery</text>
  <text x="734" y="410" fill="#F7EAD8" font-family="Arial, sans-serif" font-size="26">Pickup</text>
  <rect x="104" y="456" width="248" height="64" rx="32" fill="#F3A229"/>
  <text x="162" y="497" fill="#25120B" font-family="Arial, sans-serif" font-size="28" font-weight="700">ORDER ONLINE</text>
  <defs>
    <linearGradient id="bg" x1="40" y1="40" x2="1160" y2="590" gradientUnits="userSpaceOnUse">
      <stop stop-color="#4D2315"/>
      <stop offset="0.5" stop-color="#2A140E"/>
      <stop offset="1" stop-color="#1B0F0C"/>
    </linearGradient>
    <radialGradient id="haloA" cx="0" cy="0" r="1" gradientUnits="userSpaceOnUse" gradientTransform="translate(994 164) rotate(90) scale(164)">
      <stop stop-color="#F3A229"/>
      <stop offset="1" stop-color="#F3A229" stop-opacity="0"/>
    </radialGradient>
    <radialGradient id="haloB" cx="0" cy="0" r="1" gradientUnits="userSpaceOnUse" gradientTransform="translate(950 472) rotate(90) scale(220)">
      <stop stop-color="#C5482E"/>
      <stop offset="1" stop-color="#C5482E" stop-opacity="0"/>
    </radialGradient>
  </defs>
</svg>
